{"glyphs":{"0":{"ha":994,"x_min":0,"x_max":929,"o":"m 465 971 l 507 971 q 915 507 602 911 q 929 465 915 492 q 507 14 863 326 q 479 0 479 14 q 0 479 385 0 q 465 971 366 971 m 217 576 l 217 505 q 470 214 217 399 l 512 214 q 747 424 600 214 l 747 438 q 467 758 669 659 l 425 758 q 217 576 339 758 z "},"1":{"ha":376,"x_min":0,"x_max":301,"o":"m 220 971 l 243 971 l 243 94 l 301 14 l 301 0 l 23 0 l 23 14 q 81 162 81 78 l 81 593 q 0 769 81 684 q 220 971 0 786 z "},"2":{"ha":754,"x_min":0,"x_max":701,"o":"m 431 0 q 94 149 237 0 l 94 176 q 486 769 486 718 q 351 904 463 904 q 135 688 135 904 l 108 688 q 0 769 15 769 q 351 971 0 913 q 701 795 586 971 l 701 769 q 323 202 323 240 l 323 149 q 458 54 323 91 l 526 54 q 621 202 621 105 l 634 202 q 688 149 688 170 l 688 135 q 431 0 601 0 z "},"3":{"ha":806,"x_min":2,"x_max":736,"o":"m 165 14 q 532 300 532 177 q 355 429 428 429 l 315 429 q 179 408 223 423 l 79 440 l 152 473 l 152 471 l 165 471 q 464 728 464 620 q 288 857 360 857 l 152 857 l 152 808 l 2 835 l 2 943 q 29 971 6 971 l 83 971 q 193 928 124 971 l 328 971 q 668 728 668 895 q 450 543 668 709 q 736 300 736 435 q 247 -43 736 250 q 124 -71 159 -71 l 70 -71 l 70 -43 q 124 -28 77 -43 l 124 -5 l 159 14 l 165 14 z "},"4":{"ha":748,"x_min":0,"x_max":709,"o":"m 0 971 l 196 971 q 220 944 220 967 l 196 903 l 196 519 l 513 519 l 513 602 q 476 971 513 849 l 672 971 q 696 944 696 967 l 672 903 l 672 82 l 709 14 l 684 0 l 489 0 l 489 14 q 513 137 513 102 l 513 452 l 33 452 l 37 602 q 0 971 37 849 z "},"5":{"ha":754,"x_min":0,"x_max":701,"o":"m 270 0 q 14 135 101 0 l 14 149 q 67 202 14 170 l 81 202 q 176 54 81 105 l 243 54 q 378 149 378 91 l 378 202 q 0 769 378 240 l 0 795 q 351 971 115 971 q 701 769 701 913 q 593 688 686 769 l 566 688 q 351 904 566 904 q 216 769 238 904 q 607 176 216 718 l 607 149 q 270 0 465 0 z "},"6":{"ha":838,"x_min":0,"x_max":763,"o":"m 226 537 q 222 519 224 528 l 222 400 q 495 139 222 202 l 519 139 q 554 174 536 139 l 554 281 q 486 482 547 461 q 226 537 376 511 m 544 618 q 763 361 747 575 l 763 83 q 652 0 763 0 q 14 374 180 0 q 0 499 0 450 q 527 971 0 962 q 735 916 698 943 q 707 791 707 812 l 694 791 q 527 854 616 854 l 499 854 q 229 614 291 854 l 544 618 z "},"7":{"ha":774,"x_min":0,"x_max":696,"o":"m 611 981 q 696 966 633 966 l 696 952 q 256 100 588 856 l 256 85 l 278 0 l 43 0 q 14 28 14 0 q 427 852 115 163 q 412 895 412 880 l 313 895 q 28 625 170 895 l 0 625 l 0 640 q 128 966 79 966 l 313 966 q 611 981 426 966 z "},"8":{"ha":754,"x_min":0,"x_max":701,"o":"m 378 415 q 197 209 243 254 q 369 114 236 114 q 486 231 466 114 q 378 415 486 256 m 302 503 q 94 795 218 625 l 94 823 q 431 971 237 971 q 688 836 601 971 l 688 823 q 677 802 688 813 l 681 798 q 465 538 560 651 q 701 202 555 407 l 701 176 q 351 0 586 0 q 0 202 0 58 q 37 224 7 202 q 302 503 161 359 m 547 790 q 470 887 534 851 l 411 887 q 294 802 294 854 l 294 753 q 373 614 294 737 q 547 790 457 701 z "},"9":{"ha":838,"x_min":0,"x_max":763,"o":"m 537 434 q 541 452 539 443 l 541 571 q 268 832 541 769 l 244 832 q 209 797 227 832 l 209 690 q 277 489 216 510 q 537 434 387 460 m 219 353 q 0 610 16 396 l 0 888 q 111 971 0 971 q 749 597 583 971 q 763 472 763 522 q 236 0 763 9 q 28 56 65 28 q 56 180 56 159 l 69 180 q 236 117 147 117 l 264 117 q 534 357 472 117 l 219 353 z "},"\u0000":{"ha":0,"x_min":0,"x_max":0,"o":""},"\u001d":{"ha":0,"x_min":0,"x_max":0,"o":""}," ":{"ha":345,"x_min":0,"x_max":0,"o":""}," ":{"ha":345,"x_min":0,"x_max":0,"o":""},"!":{"ha":220,"x_min":-58,"x_max":194,"o":"m 102 -162 q -52 -90 -52 -96 q 5 -28 5 -60 l 30 84 l 155 83 l 119 -162 l 102 -162 m 126 157 q -58 327 -58 313 q 9 474 9 399 l 9 836 q -39 960 9 905 l -39 971 l 194 971 l 194 960 l 146 892 l 146 157 l 126 157 z "},"\"":{"ha":392,"x_min":-45,"x_max":327,"o":"m 137 795 l 125 718 l 109 718 q -45 790 -45 784 q 12 852 12 820 l 37 964 l 162 963 l 140 819 q 176 868 176 843 l 201 981 l 327 979 l 290 734 l 274 734 q 137 795 172 778 z "},"#":{"ha":641,"x_min":-6,"x_max":583,"o":"m 99 488 l 99 637 l -6 634 l -6 747 l 99 751 l 99 802 q 56 951 99 886 l 56 964 l 260 964 l 260 951 l 218 870 l 218 755 l 349 759 l 349 809 q 306 958 349 893 l 306 971 l 509 971 l 509 958 l 467 877 l 467 763 l 583 767 l 583 654 l 467 650 l 467 500 l 583 505 l 583 391 l 467 387 l 467 0 l 450 0 q 289 202 289 185 q 349 378 349 288 l 349 383 l 218 379 l 218 -7 l 201 -7 q 39 195 39 178 q 99 371 99 281 l 99 375 l -6 372 l -6 485 l 99 488 m 218 642 l 218 492 l 349 496 l 349 646 l 218 642 z "},"$":{"ha":754,"x_min":0,"x_max":701,"o":"m 340 446 q 94 795 248 583 l 94 823 q 398 970 224 958 q 404 1020 401 996 q 461 1041 440 1046 q 486 1004 482 1036 l 483 968 q 688 836 614 950 l 688 823 q 634 769 688 802 l 621 769 q 526 917 621 866 l 478 917 l 448 563 q 701 202 541 427 l 701 176 q 401 2 599 20 l 395 -77 q 288 -84 359 -84 q 297 9 293 -37 q 0 202 0 70 q 108 283 15 202 l 135 283 q 303 70 135 92 q 340 446 323 274 m 408 78 q 486 202 469 106 q 428 315 486 222 l 408 78 m 389 892 q 323 823 323 863 l 323 769 q 366 688 323 756 q 389 892 378 800 z "},"%":{"ha":774,"x_min":14,"x_max":696,"o":"m 408 968 q 611 981 495 972 q 696 966 633 966 l 696 952 q 256 100 588 856 l 256 85 l 278 0 l 43 0 q 14 28 14 0 q 427 852 115 163 q 412 895 412 880 l 412 895 l 408 968 m 185 926 l 204 899 l 193 769 l 43 768 l 42 896 q 185 926 50 919 m 619 175 l 638 148 l 627 18 l 477 17 l 476 145 q 619 175 484 168 z "},"&":{"ha":790,"x_min":0,"x_max":785,"o":"m 752 3 q 559 0 653 0 q 12 374 154 0 q 0 499 0 450 q 452 971 0 874 q 630 916 598 943 q 606 791 606 812 l 594 791 q 452 874 528 874 l 428 874 q 190 583 238 874 l 190 555 l 487 555 q 596 601 572 562 l 596 656 l 580 656 l 585 696 l 785 699 l 752 656 l 733 656 l 723 608 l 723 374 l 725 374 l 725 361 q 723 351 724 356 l 723 267 q 752 3 723 90 m 596 473 q 535 444 573 444 l 190 444 q 463 139 190 213 l 535 139 q 596 191 564 151 l 596 473 z "},"'":{"ha":220,"x_min":-45,"x_max":162,"o":"m 109 718 q -45 790 -45 784 q 12 852 12 820 l 37 964 l 162 963 l 125 718 l 109 718 z "},"(":{"ha":602,"x_min":0,"x_max":547,"o":"m 539 43 q 507 14 524 29 q 479 0 479 14 q 0 479 385 0 q 465 971 366 971 l 507 971 q 547 939 524 961 l 509 735 q 467 758 489 747 l 425 758 q 217 576 339 758 l 217 505 q 470 214 217 399 l 515 214 l 539 43 z "},")":{"ha":602,"x_min":0,"x_max":547,"o":"m 7 928 q 40 957 23 942 q 68 971 68 957 q 547 492 161 971 q 82 0 181 0 l 40 0 q 0 32 23 10 l 37 236 q 80 213 58 224 l 122 213 q 330 395 208 213 l 330 466 q 77 758 330 572 l 31 758 l 7 928 z "},"*":{"ha":498,"x_min":-23,"x_max":448,"o":"m 97 768 l -23 852 l 41 942 l 161 858 l 252 986 l 342 905 l 258 788 l 283 770 q 429 770 387 710 l 448 756 l 441 745 q 259 652 336 597 l 195 698 l 112 581 l 14 650 l 97 768 z "},"+":{"ha":498,"x_min":-4,"x_max":436,"o":"m 142 431 l -4 431 l -4 542 l 142 542 l 142 699 l 262 686 l 262 542 l 293 542 q 412 625 412 552 l 436 625 l 436 612 q 341 431 436 431 l 262 431 l 262 288 l 142 288 l 142 431 z "},",":{"ha":220,"x_min":-52,"x_max":155,"o":"m 102 -162 q -52 -90 -52 -96 q 5 -28 5 -60 l 30 84 l 155 83 l 119 -162 l 102 -162 z "},"-":{"ha":498,"x_min":-4,"x_max":436,"o":"m -4 542 l 293 542 q 412 625 412 552 l 436 625 l 436 612 q 341 431 436 431 l -4 431 l -4 542 z "},"­":{"ha":498,"x_min":-4,"x_max":436,"o":"m -4 542 l 293 542 q 412 625 412 552 l 436 625 l 436 612 q 341 431 436 431 l -4 431 l -4 542 z "},".":{"ha":220,"x_min":3,"x_max":165,"o":"m 146 146 l 165 119 l 155 -11 l 5 -12 l 3 116 q 146 146 11 139 z "},"/":{"ha":774,"x_min":14,"x_max":696,"o":"m 408 968 q 611 981 495 972 q 696 966 633 966 l 696 952 q 256 100 588 856 l 256 85 l 278 0 l 43 0 q 14 28 14 0 q 427 852 115 163 q 412 895 412 880 l 412 895 l 408 968 z "},":":{"ha":220,"x_min":3,"x_max":166,"o":"m 146 146 l 165 119 l 155 -11 l 5 -12 l 3 116 q 146 146 11 139 m 146 694 l 165 667 l 155 538 l 5 536 l 3 665 q 146 694 11 688 z "},";":{"ha":220,"x_min":-52,"x_max":165,"o":"m 102 -162 q -52 -90 -52 -96 q 5 -28 5 -60 l 30 84 l 155 83 l 119 -162 l 102 -162 m 146 694 l 165 667 l 155 538 l 5 536 l 3 665 q 146 694 11 688 z "},";":{"ha":220,"x_min":-52,"x_max":165,"o":"m 102 -162 q -52 -90 -52 -96 q 5 -28 5 -60 l 30 84 l 155 83 l 119 -162 l 102 -162 m 146 694 l 165 667 l 155 538 l 5 536 l 3 665 q 146 694 11 688 z "},"<":{"ha":602,"x_min":0,"x_max":547,"o":"m 539 43 q 507 14 524 29 q 479 0 479 14 q 0 479 385 0 q 465 971 366 971 l 507 971 q 547 939 524 961 l 509 735 q 467 758 489 747 l 425 758 q 217 576 339 758 l 217 505 q 470 214 217 399 l 515 214 l 539 43 z "},"=":{"ha":498,"x_min":-4,"x_max":436,"o":"m -4 639 l 293 639 q 412 722 412 649 l 436 722 l 436 709 q 341 528 436 528 l -4 528 l -4 639 m -4 435 l 293 435 q 412 519 412 446 l 436 519 l 436 505 q 341 325 436 325 l -4 325 l -4 435 z "},">":{"ha":602,"x_min":0,"x_max":547,"o":"m 7 928 q 40 957 23 942 q 68 971 68 957 q 547 492 161 971 q 82 0 181 0 l 40 0 q 0 32 23 10 l 37 236 q 80 213 58 224 l 122 213 q 330 395 208 213 l 330 466 q 77 758 330 572 l 31 758 l 7 928 z "},"?":{"ha":612,"x_min":0,"x_max":547,"o":"m 337 213 q 74 329 184 213 l 74 350 q 379 813 379 773 q 274 918 361 918 q 105 750 105 918 l 84 750 q 0 813 12 813 q 274 971 0 926 q 547 834 457 971 l 547 813 q 253 371 253 400 l 253 329 q 358 255 253 284 l 410 255 q 484 371 484 296 l 495 371 q 537 329 537 345 l 537 319 q 337 213 469 213 m 303 -139 q 149 -67 149 -73 q 205 -5 205 -37 l 231 107 l 356 106 l 319 -139 l 303 -139 z "},"@":{"ha":696,"x_min":0,"x_max":628,"o":"m 241 696 q 435 637 435 696 q 628 9 580 138 l 608 0 l 464 0 l 444 9 q 464 68 464 41 l 464 77 q 406 261 444 261 l 396 261 q 29 0 71 0 q 0 39 5 0 q 280 589 0 419 l 280 608 q 212 686 280 623 q 241 696 231 696 m 188 349 l 188 207 l 210 207 q 375 349 355 304 q 323 521 345 521 l 300 521 q 188 349 188 448 z "},"A":{"ha":948,"x_min":0,"x_max":877,"o":"m 337 971 q 607 890 607 971 q 877 14 809 193 l 850 0 l 648 0 l 621 14 q 648 94 648 58 l 648 108 q 566 364 621 364 l 553 364 q 41 0 100 0 q 0 54 7 0 q 391 823 0 586 l 391 850 q 297 958 391 870 q 337 971 323 971 m 262 487 l 262 288 l 294 288 q 524 487 496 425 q 451 728 482 728 l 419 728 q 262 487 262 625 z "},"B":{"ha":806,"x_min":-39,"x_max":736,"o":"m 29 971 l 83 971 q 193 928 124 971 l 328 971 q 668 728 668 895 q 450 543 668 709 q 736 300 736 435 q 247 -43 736 250 q 124 -71 159 -71 l 70 -71 l 70 -43 q 124 -28 77 -43 l 124 0 l -12 0 q -39 28 -39 0 q 2 457 2 79 l 2 943 q 29 971 6 971 m 152 857 l 152 471 l 165 471 q 464 728 464 620 q 288 857 360 857 l 152 857 m 138 372 l 138 86 l 152 14 l 165 14 q 532 300 532 177 q 355 429 428 429 l 315 429 q 138 372 138 418 z "},"C":{"ha":916,"x_min":0,"x_max":846,"o":"m 527 971 q 735 916 698 943 q 707 791 707 812 l 694 791 q 527 874 616 874 l 499 874 q 222 583 277 874 l 222 444 q 541 139 222 213 l 625 139 q 819 374 711 170 l 846 374 l 846 361 q 722 14 760 14 q 652 0 699 0 q 14 374 180 0 q 0 499 0 450 q 527 971 0 874 z "},"D":{"ha":783,"x_min":-5,"x_max":715,"o":"m 92 0 q 8 180 8 4 l 8 860 l -5 957 l 22 970 l 300 970 q 715 499 715 599 l 715 486 q 496 145 582 291 q 272 0 411 0 l 92 0 m 230 153 q 549 499 335 153 q 244 846 549 574 l 202 846 l 202 153 l 230 153 z "},"E":{"ha":790,"x_min":0,"x_max":725,"o":"m 452 971 q 630 916 598 943 q 606 791 606 812 l 594 791 q 452 874 528 874 l 428 874 q 190 583 238 874 l 190 555 l 487 555 q 606 638 606 565 l 630 638 l 630 625 q 535 444 630 444 l 190 444 q 463 139 190 213 l 535 139 q 701 374 609 170 l 725 374 l 725 361 q 618 14 650 14 q 559 0 598 0 q 12 374 154 0 q 0 499 0 450 q 452 971 0 874 z "},"F":{"ha":748,"x_min":-27,"x_max":684,"o":"m -14 971 l 560 971 q 684 643 611 971 l 656 643 q 382 903 519 903 l 219 903 q 192 876 192 899 l 192 554 l 492 554 q 602 363 602 554 l 574 363 q 437 445 574 435 l 192 445 l 192 68 l 219 27 q 192 0 219 0 l -27 0 q 14 370 14 121 l 14 834 q -14 971 14 861 z "},"G":{"ha":838,"x_min":0,"x_max":785,"o":"m 527 971 q 735 916 698 943 q 707 791 707 812 l 694 791 q 527 854 616 854 l 499 854 q 222 583 277 854 l 222 444 q 541 139 222 213 l 569 139 q 610 180 589 139 l 610 305 q 479 526 610 394 l 507 540 l 757 540 q 785 512 785 536 q 763 361 763 407 l 763 83 q 652 0 763 0 q 14 374 180 0 q 0 499 0 450 q 527 971 0 962 z "},"H":{"ha":748,"x_min":0,"x_max":709,"o":"m 0 971 l 196 971 q 220 944 220 967 l 196 903 l 196 519 l 513 519 l 513 602 q 476 971 513 849 l 672 971 q 696 944 696 967 l 672 903 l 672 82 l 709 14 l 684 0 l 489 0 l 489 14 q 513 137 513 102 l 513 452 l 196 452 l 196 82 l 233 14 l 208 0 l 12 0 l 12 14 q 37 137 37 102 l 37 602 q 0 971 37 849 z "},"I":{"ha":376,"x_min":0,"x_max":301,"o":"m 220 0 q 0 202 0 185 q 81 378 81 288 l 81 809 q 23 958 81 893 l 23 971 l 301 971 l 301 958 l 243 877 l 243 0 l 220 0 z "},"J":{"ha":699,"x_min":0,"x_max":643,"o":"m 424 971 l 643 971 q 602 711 616 893 q 616 437 616 527 q 246 14 616 132 q 123 0 172 0 q 0 355 68 0 l 27 370 l 41 370 q 219 137 100 137 q 424 301 317 137 l 424 903 l 397 944 q 424 971 401 971 z "},"K":{"ha":780,"x_min":0,"x_max":1002,"o":"m 72 971 l 129 971 q 215 943 168 971 l 200 871 l 200 513 l 215 513 q 458 957 458 821 l 715 957 l 715 943 q 387 485 564 780 q 1002 -260 757 -90 q 973 -288 1002 -288 l 945 -288 q 472 98 696 -288 q 286 313 306 313 q 186 141 186 223 l 186 84 l 200 12 l 172 -2 l 28 -2 q 0 26 0 -2 q 43 456 43 77 l 43 943 q 72 971 47 971 z "},"L":{"ha":683,"x_min":0,"x_max":616,"o":"m 0 971 l 219 971 q 246 944 246 967 l 219 903 l 219 96 q 246 68 223 68 l 315 68 q 588 328 452 68 l 616 328 l 616 315 q 492 0 536 0 l 14 0 l 14 14 q 41 137 41 102 l 41 602 q 0 971 41 849 z "},"M":{"ha":1055,"x_min":0,"x_max":986,"o":"m 60 971 l 493 523 l 941 956 l 956 926 l 956 119 l 986 15 l 956 0 l 867 0 q 837 30 837 0 q 867 149 867 85 l 867 448 q 837 478 867 478 l 807 478 l 508 164 l 493 164 l 179 493 l 149 493 q 119 463 119 488 l 119 164 q 149 30 119 127 l 119 15 l 30 15 q 0 45 0 15 q 30 134 30 94 l 30 941 q 60 971 35 971 z "},"N":{"ha":732,"x_min":0,"x_max":673,"o":"m 520 1055 l 673 1055 l 658 871 l 658 0 l 612 0 q 184 490 612 46 l 153 490 q 122 459 122 485 l 122 153 q 153 16 122 115 l 122 0 l 31 0 q 0 31 0 0 q 31 122 31 81 l 31 948 q 61 979 35 979 q 551 505 501 505 l 581 566 q 520 1025 566 1025 l 520 1055 z "},"O":{"ha":994,"x_min":0,"x_max":929,"o":"m 465 971 l 507 971 q 915 507 602 911 q 929 465 915 492 q 507 14 863 326 q 479 0 479 14 q 0 479 385 0 q 465 971 366 971 m 217 576 l 217 505 q 470 214 217 399 l 512 214 q 747 424 600 214 l 747 438 q 467 758 669 659 l 425 758 q 217 576 339 758 z "},"P":{"ha":787,"x_min":-27,"x_max":715,"o":"m 44 971 l 102 971 q 216 928 144 971 l 359 971 q 715 728 715 895 q 244 414 715 680 q 159 372 159 406 l 159 85 l 173 14 l 144 0 l 1 0 q -27 28 -27 0 q 16 457 16 79 l 16 943 q 44 971 20 971 m 173 857 l 173 471 l 187 471 q 501 728 501 620 q 315 857 392 857 l 173 857 z "},"Q":{"ha":997,"x_min":0,"x_max":1069,"o":"m 465 971 l 507 971 q 915 507 602 911 q 929 464 915 492 q 746 224 929 441 q 1069 -127 924 -67 q 1042 -155 1069 -155 l 1013 -155 q 633 98 799 -155 l 479 -1 q 0 478 385 -1 q 465 971 366 971 m 211 605 l 211 534 q 507 197 211 428 l 549 197 l 549 211 l 408 408 l 436 422 l 535 422 q 690 309 597 422 q 746 366 711 309 l 746 380 q 422 745 625 646 l 380 745 q 211 605 294 745 z "},"R":{"ha":767,"x_min":-42,"x_max":957,"o":"m 29 968 l 86 968 q 201 925 130 968 l 343 968 q 700 725 700 892 q 372 482 700 696 l 372 439 q 957 -260 715 -92 q 928 -288 957 -288 l 900 -288 q 386 154 648 -288 q 158 397 203 397 l 144 368 l 144 83 l 158 12 l 130 -3 l -14 -3 q -42 26 -42 -3 q 1 454 1 76 l 1 939 q 29 968 5 968 m 158 854 l 158 468 l 172 468 q 486 725 486 616 q 300 854 377 854 l 158 854 z "},"S":{"ha":754,"x_min":0,"x_max":701,"o":"m 431 971 q 688 836 601 971 l 688 823 q 634 769 688 802 l 621 769 q 526 917 621 866 l 458 917 q 323 823 323 880 l 323 769 q 701 202 323 731 l 701 176 q 351 0 586 0 q 0 202 0 58 q 108 283 15 202 l 135 283 q 351 67 135 67 q 486 202 463 67 q 94 795 486 254 l 94 823 q 431 971 237 971 z "},"T":{"ha":777,"x_min":0,"x_max":711,"o":"m 123 971 l 588 971 q 711 752 679 971 l 711 711 l 684 711 q 479 916 684 841 l 452 916 l 437 848 l 437 370 q 479 0 437 122 l 260 0 q 233 27 233 0 l 260 68 l 260 916 l 233 916 q 27 711 106 916 l 0 711 l 0 725 q 123 971 23 971 z "},"U":{"ha":683,"x_min":0,"x_max":652,"o":"m 0 971 l 213 971 q 239 945 239 967 q 199 825 199 872 l 213 665 l 199 585 q 359 80 199 152 l 372 80 q 452 572 435 119 l 412 958 q 532 971 484 971 l 625 971 l 652 958 q 599 785 616 908 q 612 639 612 694 l 612 346 q 372 0 612 64 l 359 0 q 40 359 40 199 l 40 532 q 0 971 40 826 z "},"V":{"ha":932,"x_min":0,"x_max":888,"o":"m 0 971 l 250 971 q 277 943 277 967 l 250 902 q 430 153 338 153 q 472 111 430 133 l 486 111 q 638 819 513 111 l 638 902 l 610 943 q 638 971 615 971 l 888 971 q 680 139 819 800 q 472 0 573 24 q 97 555 210 159 l 0 971 z "},"W":{"ha":1243,"x_min":0,"x_max":1178,"o":"m 873 984 l 901 970 l 1178 970 q 970 138 1109 800 q 762 0 864 24 q 610 83 656 83 q 471 0 536 5 q 97 554 210 159 l 0 970 l 541 970 q 568 943 568 966 l 541 901 q 582 610 541 818 l 610 610 q 637 818 637 740 l 637 901 l 610 943 q 637 970 614 970 l 859 970 q 873 984 873 970 m 887 943 q 707 180 833 943 q 762 111 734 117 l 776 111 q 928 818 804 111 l 928 901 q 887 943 928 921 m 250 901 q 430 153 337 153 q 471 111 430 132 l 485 111 q 513 138 513 111 l 513 222 q 305 915 305 759 q 291 928 291 915 q 250 901 250 915 z "},"X":{"ha":767,"x_min":0,"x_max":701,"o":"m 0 971 l 229 971 q 283 795 252 971 q 351 688 336 688 q 458 971 458 848 l 701 971 l 701 958 q 445 513 585 804 l 445 458 q 701 14 585 167 l 701 0 l 472 0 q 418 176 449 0 q 351 283 366 283 q 243 0 243 123 l 0 0 l 0 14 q 256 458 116 167 l 256 513 q 0 958 116 804 l 0 971 z "},"Y":{"ha":903,"x_min":0,"x_max":847,"o":"m 68 984 l 96 970 l 218 970 l 246 957 l 233 902 q 478 342 304 342 l 492 342 l 615 875 l 615 888 q 588 970 615 926 l 615 984 l 820 984 q 847 957 847 980 l 547 27 q 300 0 477 0 l 287 0 q 260 27 260 0 q 451 218 305 27 l 451 260 q 96 642 216 364 q 0 970 27 796 q 68 984 68 970 z "},"Z":{"ha":774,"x_min":0,"x_max":711,"o":"m 611 981 q 696 966 633 966 l 696 952 q 256 100 588 856 l 256 85 l 327 71 l 398 71 q 682 341 540 71 l 711 341 l 711 327 q 583 0 629 0 l 43 0 q 14 28 14 0 q 427 852 115 163 q 412 895 412 880 l 313 895 q 28 625 170 895 l 0 625 l 0 640 q 128 966 79 966 l 313 966 q 611 981 426 966 z "},"[":{"ha":602,"x_min":0,"x_max":547,"o":"m 539 43 q 507 14 524 29 q 479 0 479 14 q 0 479 385 0 q 465 971 366 971 l 507 971 q 547 939 524 961 l 509 735 q 467 758 489 747 l 425 758 q 217 576 339 758 l 217 505 q 470 214 217 399 l 515 214 l 539 43 z "},"\\":{"ha":774,"x_min":14,"x_max":696,"o":"m 408 12 l 412 85 l 412 85 q 427 128 412 100 q 14 952 115 818 q 43 981 14 981 l 278 981 l 256 895 l 256 881 q 696 28 588 125 l 696 14 q 611 0 633 14 q 408 12 495 9 z "},"]":{"ha":602,"x_min":0,"x_max":547,"o":"m 7 928 q 40 957 23 942 q 68 971 68 957 q 547 492 161 971 q 82 0 181 0 l 40 0 q 0 32 23 10 l 37 236 q 80 213 58 224 l 122 213 q 330 395 208 213 l 330 466 q 77 758 330 572 l 31 758 l 7 928 z "},"^":{"ha":1017,"x_min":0,"x_max":947,"o":"m 458 947 l 480 947 q 863 743 707 947 q 947 486 947 616 l 947 458 q 751 87 947 245 q 488 0 620 0 l 467 0 q 84 203 239 0 q 0 461 0 330 l 0 488 q 195 860 0 701 q 458 947 327 947 m 65 597 l 68 597 q 803 594 534 594 l 882 594 q 684 841 818 773 q 483 898 590 898 l 461 898 q 144 743 279 898 q 65 597 84 667 m 450 849 q 469 830 467 830 l 491 849 q 513 827 494 849 q 494 808 509 827 l 494 806 q 513 787 494 802 q 532 806 513 791 l 534 806 q 553 787 538 806 l 553 784 q 534 765 553 780 l 532 765 l 510 784 q 494 765 510 783 q 513 741 513 745 l 491 722 l 469 741 l 448 722 l 429 743 l 448 765 l 429 784 l 407 765 q 385 787 404 765 l 407 806 l 429 787 l 448 808 q 429 827 444 808 q 450 849 429 831 m 469 827 l 450 806 l 472 787 q 488 806 472 788 l 488 808 q 469 827 488 812 m 469 784 l 450 762 l 469 746 q 488 765 473 746 q 469 784 488 769 m 217 684 l 225 684 l 244 678 l 244 673 l 239 665 q 217 667 224 667 q 206 651 206 665 q 220 635 206 640 q 239 640 237 640 l 247 629 q 222 618 238 623 q 187 651 187 625 q 217 684 193 684 m 252 684 l 266 684 q 271 678 271 683 l 271 659 l 290 659 l 290 684 l 309 684 l 309 621 l 290 621 l 290 643 l 271 643 l 271 621 l 252 621 l 252 684 m 323 684 l 366 684 l 366 667 l 336 667 l 336 659 l 366 659 l 366 648 q 361 643 366 643 l 355 646 l 350 643 l 336 646 l 336 637 l 363 637 q 369 632 369 637 l 369 621 l 317 621 l 317 678 q 323 684 318 684 m 407 684 q 442 654 442 679 l 437 632 q 442 627 442 631 q 431 616 442 623 l 423 621 q 401 618 408 618 q 372 651 379 618 q 407 684 372 684 m 453 684 l 461 684 q 467 678 467 683 l 467 651 q 475 635 469 635 l 480 635 q 488 643 484 635 l 488 678 l 491 684 l 496 681 l 499 681 l 505 684 l 507 678 l 507 646 q 480 618 504 618 l 475 618 q 448 651 450 618 l 448 678 q 453 684 448 684 m 518 684 l 524 684 l 540 681 q 548 684 545 684 q 556 681 553 681 q 564 684 562 684 l 564 670 q 559 665 564 665 q 548 667 554 667 l 548 665 l 543 667 l 534 667 l 534 659 l 564 659 l 564 648 q 559 643 564 643 l 534 643 l 534 635 l 543 635 q 545 637 545 635 l 551 635 l 556 635 q 559 637 559 635 q 567 635 564 635 l 567 621 l 553 621 l 537 618 q 524 621 532 621 l 524 618 q 515 621 518 621 l 515 670 l 518 684 m 578 684 l 597 681 l 597 684 q 629 662 629 679 q 616 643 627 643 l 632 621 l 627 618 l 616 618 q 594 640 614 618 l 591 640 l 591 629 l 594 624 l 589 621 l 572 621 l 572 624 q 575 629 572 629 l 572 648 l 575 675 l 572 675 q 578 684 575 684 m 637 681 l 686 681 l 686 670 q 681 665 686 665 l 656 665 l 656 659 l 684 659 l 684 643 l 656 643 l 656 635 l 686 635 l 686 624 q 681 618 686 618 l 643 618 q 637 624 637 618 l 637 681 m 694 681 l 727 681 q 754 648 751 681 q 711 618 754 620 l 700 618 q 694 624 694 618 l 694 681 m 391 648 q 410 635 395 635 q 423 654 423 639 q 412 667 418 666 l 401 667 q 391 648 391 663 m 591 667 l 591 654 l 605 654 q 610 659 610 654 l 610 662 q 605 667 610 667 l 591 667 m 713 665 l 713 635 l 716 635 q 735 646 731 635 l 735 656 q 727 665 735 661 l 713 665 m 141 461 l 141 456 q 184 410 150 410 l 212 410 q 225 431 225 416 l 225 442 q 214 456 214 442 q 266 483 214 483 q 277 488 266 486 l 277 486 q 212 315 226 317 l 206 315 q 198 328 200 315 q 212 358 198 333 q 176 382 198 382 l 168 382 q 125 339 125 376 l 125 334 q 174 277 125 294 q 201 274 188 274 l 212 274 q 323 391 296 274 q 380 545 339 427 q 345 553 367 553 l 328 553 q 288 529 307 553 q 182 505 253 514 q 141 461 141 490 m 540 312 l 537 317 l 537 326 q 559 418 537 338 q 529 445 552 445 l 510 445 q 467 431 498 445 l 467 437 l 469 442 q 439 448 458 448 l 412 448 q 380 418 389 448 q 336 277 336 283 q 382 269 353 269 q 423 309 423 269 q 461 399 451 399 q 469 401 469 399 q 480 393 480 397 q 456 309 456 330 l 456 304 q 494 271 456 277 q 567 296 521 271 l 562 279 q 600 269 572 269 q 646 290 646 269 q 697 399 661 399 l 705 399 q 711 393 711 398 l 711 391 q 675 355 711 372 l 673 342 q 730 271 673 271 q 827 345 789 271 l 817 353 l 811 353 q 757 312 787 312 l 751 312 q 735 336 735 319 l 735 347 l 773 372 q 787 410 787 397 l 787 415 q 746 448 787 443 q 689 431 735 448 q 686 434 689 434 q 727 543 727 538 q 686 551 714 551 l 662 551 q 635 505 642 551 q 581 345 627 496 q 540 312 550 312 m 141 212 l 141 209 q 464 49 279 49 l 486 49 q 789 187 656 49 q 806 209 806 206 q 298 212 465 212 l 141 212 m 350 165 l 377 165 l 377 160 l 355 160 l 355 146 l 377 146 l 377 141 l 355 141 l 355 130 l 374 130 q 380 125 380 130 l 350 125 l 350 165 m 393 165 l 407 165 q 415 157 411 165 l 412 157 l 396 160 q 391 155 391 159 l 391 149 q 418 136 418 146 q 399 122 414 122 q 382 133 382 127 l 388 136 q 401 127 388 130 l 412 133 q 385 146 412 141 l 385 157 q 393 165 385 161 m 418 165 l 450 165 l 450 160 l 437 160 l 437 125 l 431 125 l 431 160 l 418 160 l 418 165 m 486 165 q 502 155 494 165 q 475 138 502 142 l 472 133 q 477 127 473 127 l 499 127 l 499 122 l 480 122 l 467 125 l 467 127 q 486 146 467 146 l 494 146 q 496 155 494 149 l 488 160 l 480 160 l 469 152 l 469 157 q 486 165 472 165 m 524 165 l 526 165 q 537 155 530 165 l 537 133 q 518 122 533 122 q 505 141 505 126 l 505 146 q 524 165 505 165 m 556 165 l 556 127 l 564 127 q 559 122 564 122 l 545 122 l 545 127 l 551 127 l 551 157 l 545 157 l 545 163 q 556 165 551 163 m 570 165 l 594 165 q 600 160 600 165 l 575 160 l 575 149 l 591 149 q 602 136 597 148 q 583 122 598 122 q 570 130 570 124 l 570 136 l 581 127 l 589 127 q 597 136 593 127 q 589 144 597 140 l 570 144 l 570 165 m 510 152 l 510 136 q 518 127 510 132 l 524 127 q 532 136 528 127 l 532 152 q 524 160 532 156 l 518 160 q 510 152 514 160 z "},"_":{"ha":1017,"x_min":0,"x_max":947,"o":"m 458 947 l 480 947 q 863 743 707 947 q 947 486 947 616 l 947 458 q 751 87 947 245 q 488 0 620 0 l 467 0 q 84 203 239 0 q 0 461 0 330 l 0 488 q 195 860 0 701 q 458 947 327 947 m 65 597 l 68 597 q 803 594 534 594 l 882 594 q 684 841 818 773 q 483 898 590 898 l 461 898 q 144 743 279 898 q 65 597 84 667 m 450 849 q 469 830 467 830 l 491 849 q 513 827 494 849 q 494 808 509 827 l 494 806 q 513 787 494 802 q 532 806 513 791 l 534 806 q 553 787 538 806 l 553 784 q 534 765 553 780 l 532 765 l 510 784 q 494 765 510 783 q 513 741 513 745 l 491 722 l 469 741 l 448 722 l 429 743 l 448 765 l 429 784 l 407 765 q 385 787 404 765 l 407 806 l 429 787 l 448 808 q 429 827 444 808 q 450 849 429 831 m 469 827 l 450 806 l 472 787 q 488 806 472 788 l 488 808 q 469 827 488 812 m 469 784 l 450 762 l 469 746 q 488 765 473 746 q 469 784 488 769 m 217 684 l 225 684 l 244 678 l 244 673 l 239 665 q 217 667 224 667 q 206 651 206 665 q 220 635 206 640 q 239 640 237 640 l 247 629 q 222 618 238 623 q 187 651 187 625 q 217 684 193 684 m 252 684 l 266 684 q 271 678 271 683 l 271 659 l 290 659 l 290 684 l 309 684 l 309 621 l 290 621 l 290 643 l 271 643 l 271 621 l 252 621 l 252 684 m 323 684 l 366 684 l 366 667 l 336 667 l 336 659 l 366 659 l 366 648 q 361 643 366 643 l 355 646 l 350 643 l 336 646 l 336 637 l 363 637 q 369 632 369 637 l 369 621 l 317 621 l 317 678 q 323 684 318 684 m 407 684 q 442 654 442 679 l 437 632 q 442 627 442 631 q 431 616 442 623 l 423 621 q 401 618 408 618 q 372 651 379 618 q 407 684 372 684 m 453 684 l 461 684 q 467 678 467 683 l 467 651 q 475 635 469 635 l 480 635 q 488 643 484 635 l 488 678 l 491 684 l 496 681 l 499 681 l 505 684 l 507 678 l 507 646 q 480 618 504 618 l 475 618 q 448 651 450 618 l 448 678 q 453 684 448 684 m 518 684 l 524 684 l 540 681 q 548 684 545 684 q 556 681 553 681 q 564 684 562 684 l 564 670 q 559 665 564 665 q 548 667 554 667 l 548 665 l 543 667 l 534 667 l 534 659 l 564 659 l 564 648 q 559 643 564 643 l 534 643 l 534 635 l 543 635 q 545 637 545 635 l 551 635 l 556 635 q 559 637 559 635 q 567 635 564 635 l 567 621 l 553 621 l 537 618 q 524 621 532 621 l 524 618 q 515 621 518 621 l 515 670 l 518 684 m 578 684 l 597 681 l 597 684 q 629 662 629 679 q 616 643 627 643 l 632 621 l 627 618 l 616 618 q 594 640 614 618 l 591 640 l 591 629 l 594 624 l 589 621 l 572 621 l 572 624 q 575 629 572 629 l 572 648 l 575 675 l 572 675 q 578 684 575 684 m 637 681 l 686 681 l 686 670 q 681 665 686 665 l 656 665 l 656 659 l 684 659 l 684 643 l 656 643 l 656 635 l 686 635 l 686 624 q 681 618 686 618 l 643 618 q 637 624 637 618 l 637 681 m 694 681 l 727 681 q 754 648 751 681 q 711 618 754 620 l 700 618 q 694 624 694 618 l 694 681 m 391 648 q 410 635 395 635 q 423 654 423 639 q 412 667 418 666 l 401 667 q 391 648 391 663 m 591 667 l 591 654 l 605 654 q 610 659 610 654 l 610 662 q 605 667 610 667 l 591 667 m 713 665 l 713 635 l 716 635 q 735 646 731 635 l 735 656 q 727 665 735 661 l 713 665 m 141 461 l 141 456 q 184 410 150 410 l 212 410 q 225 431 225 416 l 225 442 q 214 456 214 442 q 266 483 214 483 q 277 488 266 486 l 277 486 q 212 315 226 317 l 206 315 q 198 328 200 315 q 212 358 198 333 q 176 382 198 382 l 168 382 q 125 339 125 376 l 125 334 q 174 277 125 294 q 201 274 188 274 l 212 274 q 323 391 296 274 q 380 545 339 427 q 345 553 367 553 l 328 553 q 288 529 307 553 q 182 505 253 514 q 141 461 141 490 m 540 312 l 537 317 l 537 326 q 559 418 537 338 q 529 445 552 445 l 510 445 q 467 431 498 445 l 467 437 l 469 442 q 439 448 458 448 l 412 448 q 380 418 389 448 q 336 277 336 283 q 382 269 353 269 q 423 309 423 269 q 461 399 451 399 q 469 401 469 399 q 480 393 480 397 q 456 309 456 330 l 456 304 q 494 271 456 277 q 567 296 521 271 l 562 279 q 600 269 572 269 q 646 290 646 269 q 697 399 661 399 l 705 399 q 711 393 711 398 l 711 391 q 675 355 711 372 l 673 342 q 730 271 673 271 q 827 345 789 271 l 817 353 l 811 353 q 757 312 787 312 l 751 312 q 735 336 735 319 l 735 347 l 773 372 q 787 410 787 397 l 787 415 q 746 448 787 443 q 689 431 735 448 q 686 434 689 434 q 727 543 727 538 q 686 551 714 551 l 662 551 q 635 505 642 551 q 581 345 627 496 q 540 312 550 312 m 141 212 l 141 209 q 464 49 279 49 l 486 49 q 789 187 656 49 q 806 209 806 206 q 298 212 465 212 l 141 212 m 350 165 l 377 165 l 377 160 l 355 160 l 355 146 l 377 146 l 377 141 l 355 141 l 355 130 l 374 130 q 380 125 380 130 l 350 125 l 350 165 m 393 165 l 407 165 q 415 157 411 165 l 412 157 l 396 160 q 391 155 391 159 l 391 149 q 418 136 418 146 q 399 122 414 122 q 382 133 382 127 l 388 136 q 401 127 388 130 l 412 133 q 385 146 412 141 l 385 157 q 393 165 385 161 m 418 165 l 450 165 l 450 160 l 437 160 l 437 125 l 431 125 l 431 160 l 418 160 l 418 165 m 486 165 q 502 155 494 165 q 475 138 502 142 l 472 133 q 477 127 473 127 l 499 127 l 499 122 l 480 122 l 467 125 l 467 127 q 486 146 467 146 l 494 146 q 496 155 494 149 l 488 160 l 480 160 l 469 152 l 469 157 q 486 165 472 165 m 524 165 l 526 165 q 537 155 530 165 l 537 133 q 518 122 533 122 q 505 141 505 126 l 505 146 q 524 165 505 165 m 556 165 l 556 127 l 564 127 q 559 122 564 122 l 545 122 l 545 127 l 551 127 l 551 157 l 545 157 l 545 163 q 556 165 551 163 m 570 165 l 594 165 q 600 160 600 165 l 575 160 l 575 149 l 591 149 q 602 136 597 148 q 583 122 598 122 q 570 130 570 124 l 570 136 l 581 127 l 589 127 q 597 136 593 127 q 589 144 597 140 l 570 144 l 570 165 m 510 152 l 510 136 q 518 127 510 132 l 524 127 q 532 136 528 127 l 532 152 q 524 160 532 156 l 518 160 q 510 152 514 160 z "},"`":{"ha":220,"x_min":-45,"x_max":162,"o":"m 109 718 q -45 790 -45 784 q 12 852 12 820 l 37 964 l 162 963 l 125 718 l 109 718 z "},"a":{"ha":696,"x_min":0,"x_max":628,"o":"m 241 696 q 435 637 435 696 q 628 9 580 138 l 608 0 l 464 0 l 444 9 q 464 68 464 41 l 464 77 q 406 261 444 261 l 396 261 q 29 0 71 0 q 0 39 5 0 q 280 589 0 419 l 280 608 q 212 686 280 623 q 241 696 231 696 m 188 349 l 188 207 l 210 207 q 375 349 355 304 q 323 521 345 521 l 300 521 q 188 349 188 448 z "},"b":{"ha":589,"x_min":-39,"x_max":531,"o":"m 12 696 l 52 696 q 132 664 81 696 l 231 696 q 481 517 481 640 q 321 380 481 503 q 531 202 531 301 q 172 -50 531 165 q 81 -71 106 -71 l 41 -71 l 41 -50 q 81 -40 46 -50 l 81 -19 l -19 -19 q -39 2 -39 -19 q -9 317 -9 39 l -9 675 q 12 696 -5 696 m 101 612 l 101 328 l 111 328 q 331 517 331 437 q 201 612 255 612 l 101 612 m 92 254 l 92 44 l 101 -8 l 111 -8 q 381 202 381 111 q 251 296 304 296 l 221 296 q 92 254 92 289 z "},"c":{"ha":667,"x_min":0,"x_max":608,"o":"m 379 698 q 528 658 502 678 q 509 568 509 583 l 498 568 q 379 628 443 628 l 359 628 q 159 419 199 628 l 159 319 q 389 100 159 153 l 449 100 q 589 269 511 122 l 608 269 l 608 259 q 519 10 546 10 q 469 0 502 0 q 10 269 129 0 q 0 359 0 323 q 379 698 0 628 z "},"d":{"ha":576,"x_min":-5,"x_max":511,"o":"m 64 0 q 4 130 4 3 l 4 616 l -5 686 l 14 696 l 213 696 q 511 358 511 429 l 511 348 q 354 104 416 209 q 193 0 293 0 l 64 0 m 163 109 q 392 358 239 109 q 174 606 392 411 l 144 606 l 144 109 l 163 109 z "},"e":{"ha":586,"x_min":0,"x_max":519,"o":"m 323 696 q 451 656 429 676 q 434 566 434 581 l 426 566 q 323 626 378 626 l 307 626 q 136 418 170 626 l 136 397 l 349 397 q 434 457 434 405 l 451 457 l 451 448 q 383 318 451 318 l 136 318 q 332 100 136 153 l 383 100 q 503 269 436 122 l 519 269 l 519 258 q 443 10 466 10 q 400 0 429 0 q 9 269 111 0 q 0 358 0 322 q 323 696 0 626 z "},"f":{"ha":550,"x_min":-27,"x_max":486,"o":"m -17 701 l 397 701 q 486 464 433 701 l 466 464 q 269 651 367 651 l 151 651 q 131 631 131 648 l 131 400 l 347 400 q 426 262 426 400 l 406 262 q 308 321 406 314 l 131 321 l 131 50 l 151 20 q 131 0 151 0 l -27 0 q 3 267 3 87 l 3 602 q -17 701 3 621 z "},"g":{"ha":625,"x_min":0,"x_max":557,"o":"m 374 689 q 522 650 495 669 q 502 561 502 576 l 492 561 q 374 606 437 606 l 355 606 q 157 414 197 606 l 157 315 q 384 98 157 151 l 404 98 q 433 128 418 98 l 433 216 q 340 373 433 279 l 360 383 l 537 383 q 557 363 557 380 q 541 256 541 289 l 541 59 q 463 0 541 0 q 10 266 127 0 q 0 355 0 319 q 374 689 0 683 z "},"h":{"ha":550,"x_min":0,"x_max":505,"o":"m 0 692 l 140 692 q 157 673 157 689 l 140 644 l 140 370 l 366 370 l 366 429 q 340 692 366 606 l 479 692 q 496 673 496 689 l 479 644 l 479 58 l 505 9 l 488 0 l 349 0 l 349 9 q 366 98 366 73 l 366 322 l 140 322 l 140 58 l 165 9 l 149 0 l 9 0 l 9 9 q 26 98 26 73 l 26 429 q 0 692 26 606 z "},"i":{"ha":275,"x_min":0,"x_max":215,"o":"m 157 0 q 0 144 0 132 q 58 269 58 205 l 58 577 q 16 683 58 637 l 16 692 l 215 692 l 215 683 l 174 625 l 174 0 l 157 0 z "},"j":{"ha":518,"x_min":0,"x_max":460,"o":"m 303 694 l 460 694 q 431 509 440 639 q 440 313 440 376 q 176 9 440 95 q 88 0 123 0 q 0 254 49 0 l 20 264 l 29 264 q 157 98 71 98 q 303 215 227 98 l 303 646 l 283 675 q 303 694 287 694 z "},"k":{"ha":581,"x_min":0,"x_max":718,"o":"m 52 696 l 92 696 q 154 675 120 696 l 144 624 l 144 368 l 154 368 q 328 686 328 589 l 513 686 l 513 675 q 277 347 404 559 q 718 -186 542 -64 q 697 -206 718 -206 l 677 -206 q 338 71 498 -206 q 205 224 219 224 q 134 101 134 160 l 134 60 l 144 9 l 123 -1 l 20 -1 q 0 19 0 -1 q 31 327 31 56 l 31 675 q 52 696 34 696 z "},"l":{"ha":505,"x_min":0,"x_max":441,"o":"m 0 696 l 157 696 q 176 676 176 692 l 157 647 l 157 68 q 176 49 160 49 l 225 49 q 421 235 323 49 l 441 235 l 441 225 q 353 0 385 0 l 9 0 l 9 9 q 29 98 29 73 l 29 431 q 0 696 29 608 z "},"m":{"ha":774,"x_min":0,"x_max":709,"o":"m 43 698 l 355 376 l 677 687 l 687 666 l 687 86 l 709 11 l 687 0 l 623 0 q 602 22 602 0 q 623 107 623 61 l 623 322 q 602 344 623 344 l 580 344 l 365 118 l 355 118 l 129 355 l 107 355 q 86 333 86 351 l 86 118 q 107 22 86 92 l 86 11 l 22 11 q 0 33 0 11 q 22 97 22 67 l 22 677 q 43 698 25 698 z "},"n":{"ha":524,"x_min":0,"x_max":473,"o":"m 366 694 l 473 694 l 462 565 l 462 0 l 430 0 q 129 344 430 32 l 107 344 q 86 322 86 340 l 86 107 q 107 11 86 81 l 86 0 l 22 0 q 0 22 0 0 q 22 86 22 57 l 22 666 q 43 688 25 688 q 387 355 352 355 l 408 397 q 366 673 397 673 l 366 694 z "},"o":{"ha":728,"x_min":0,"x_max":667,"o":"m 333 696 l 363 696 q 656 363 431 654 q 667 333 656 353 q 363 10 619 233 q 343 0 343 10 q 0 343 276 0 q 333 696 262 696 m 156 413 l 156 363 q 337 153 156 287 l 368 153 q 536 304 431 153 l 536 314 q 335 544 479 473 l 304 544 q 156 413 243 544 z "},"p":{"ha":573,"x_min":-27,"x_max":505,"o":"m 24 696 l 65 696 q 147 665 96 696 l 249 696 q 505 522 505 642 q 168 297 505 487 q 106 266 106 290 l 106 62 l 116 10 l 96 0 l -7 0 q -27 20 -27 0 q 3 328 3 56 l 3 675 q 24 696 7 696 m 116 614 l 116 338 l 126 338 q 351 522 351 444 q 218 614 273 614 l 116 614 z "},"q":{"ha":734,"x_min":0,"x_max":777,"o":"m 337 696 l 368 696 q 665 359 437 653 q 675 329 665 349 q 542 155 675 312 q 777 -100 671 -57 q 756 -121 777 -121 l 736 -121 q 460 63 580 -121 l 347 -9 q 0 339 279 -9 q 337 696 265 696 m 153 431 l 153 380 q 368 134 153 302 l 399 134 l 399 144 l 296 288 l 317 298 l 389 298 q 500 216 433 298 q 542 257 517 216 l 542 267 q 307 533 454 460 l 276 533 q 153 431 214 533 z "},"r":{"ha":578,"x_min":-28,"x_max":692,"o":"m 23 696 l 64 696 q 146 665 95 696 l 250 696 q 507 521 507 641 q 270 346 507 500 l 270 315 q 692 -190 518 -68 q 672 -211 692 -211 l 651 -211 q 281 109 469 -211 q 116 283 149 283 l 105 263 l 105 57 l 116 5 l 95 -5 l -8 -5 q -28 16 -28 -5 q 3 325 3 52 l 3 675 q 23 696 5 696 m 116 613 l 116 335 l 126 335 q 353 521 353 442 q 219 613 274 613 l 116 613 z "},"s":{"ha":518,"x_min":-47,"x_max":454,"o":"m 261 695 q 445 598 382 695 l 445 589 q 406 550 445 574 l 397 550 q 329 656 397 620 l 281 656 q 184 589 184 630 l 184 550 q 454 145 184 524 l 454 125 q 203 0 372 0 q -47 145 -47 42 q 30 203 -37 145 l 49 203 q 203 48 49 48 q 300 145 284 48 q 20 570 300 182 l 20 589 q 261 695 122 695 z "},"t":{"ha":576,"x_min":0,"x_max":507,"o":"m 87 692 l 419 692 q 507 536 484 692 l 507 507 l 488 507 q 341 653 488 600 l 322 653 l 312 605 l 312 263 q 341 0 312 87 l 185 0 q 165 20 165 0 l 185 49 l 185 653 l 165 653 q 20 507 76 653 l 0 507 l 0 517 q 87 692 16 692 z "},"u":{"ha":511,"x_min":0,"x_max":469,"o":"m 0 699 l 153 699 q 172 680 172 696 q 144 594 144 628 l 153 479 l 144 422 q 258 58 144 110 l 269 58 q 326 412 313 86 l 297 690 q 383 699 349 699 l 450 699 l 469 690 q 431 565 444 654 q 441 460 441 500 l 441 249 q 269 0 441 46 l 258 0 q 28 258 28 144 l 28 383 q 0 699 28 595 z "},"v":{"ha":703,"x_min":0,"x_max":636,"o":"m 0 696 l 179 696 q 199 676 199 692 l 179 646 q 308 109 242 109 q 338 79 308 95 l 348 79 q 457 587 368 79 l 457 646 l 437 676 q 457 696 440 696 l 636 696 q 487 100 587 574 q 338 0 411 17 q 70 397 151 114 l 0 696 z "},"w":{"ha":900,"x_min":0,"x_max":837,"o":"m 621 699 l 640 689 l 837 689 q 689 98 788 568 q 542 0 614 17 q 433 59 466 59 q 335 0 381 4 q 69 394 149 113 l 0 689 l 384 689 q 404 669 404 686 l 384 640 q 414 433 384 581 l 433 433 q 453 581 453 526 l 453 640 l 433 669 q 453 689 436 689 l 610 689 q 621 699 621 689 m 630 669 q 503 128 591 669 q 542 79 522 83 l 551 79 q 660 581 571 79 l 660 640 q 630 669 660 654 m 177 640 q 305 109 239 109 q 335 79 305 94 l 345 79 q 364 98 364 79 l 364 157 q 216 650 216 539 q 207 660 207 650 q 177 640 177 650 z "},"x":{"ha":570,"x_min":0,"x_max":502,"o":"m 0 695 l 164 695 q 203 570 180 695 q 251 492 240 492 q 328 695 328 607 l 502 695 l 502 686 q 319 367 419 576 l 319 328 q 502 9 419 119 l 502 0 l 338 0 q 299 125 321 0 q 251 203 262 203 q 174 0 174 88 l 0 0 l 0 9 q 183 328 83 119 l 183 367 q 0 686 83 576 l 0 695 z "},"y":{"ha":663,"x_min":0,"x_max":600,"o":"m 157 696 l 176 686 l 167 646 q 343 245 218 245 l 353 245 l 434 613 l 434 623 q 414 682 434 650 l 434 692 l 581 692 q 600 672 600 688 l 392 20 q 216 0 342 0 l 205 0 q 186 20 186 0 q 323 157 218 20 l 323 186 q 68 460 155 261 q 0 696 20 570 l 157 696 z "},"z":{"ha":576,"x_min":0,"x_max":509,"o":"m 438 703 q 499 692 453 692 l 499 682 q 183 71 421 613 l 183 61 l 234 51 l 285 51 q 489 244 387 51 l 509 244 l 509 234 q 418 0 450 0 l 31 0 q 10 20 10 0 q 305 611 83 117 q 295 642 295 631 l 224 642 q 20 448 122 642 l 0 448 l 0 458 q 92 692 56 692 l 224 692 q 438 703 305 692 z "},"{":{"ha":602,"x_min":0,"x_max":547,"o":"m 539 43 q 507 14 524 29 q 479 0 479 14 q 0 479 385 0 q 465 971 366 971 l 507 971 q 547 939 524 961 l 509 735 q 467 758 489 747 l 425 758 q 217 576 339 758 l 217 505 q 470 214 217 399 l 515 214 l 539 43 z "},"|":{"ha":376,"x_min":0,"x_max":301,"o":"m 220 0 q 0 202 0 185 q 81 378 81 288 l 81 809 q 23 958 81 893 l 23 971 l 301 971 l 301 958 l 243 877 l 243 0 l 220 0 z "},"}":{"ha":602,"x_min":0,"x_max":547,"o":"m 7 928 q 40 957 23 942 q 68 971 68 957 q 547 492 161 971 q 82 0 181 0 l 40 0 q 0 32 23 10 l 37 236 q 80 213 58 224 l 122 213 q 330 395 208 213 l 330 466 q 77 758 330 572 l 31 758 l 7 928 z "},"~":{"ha":498,"x_min":-4,"x_max":436,"o":"m -4 542 l 293 542 q 412 625 412 552 l 436 625 l 436 612 q 341 431 436 431 l -4 431 l -4 542 z "}}}
